<?xml version="1.0" encoding="UTF-8"?><svg xmlns="http://www.w3.org/2000/svg" xmlns:xlink="http://www.w3.org/1999/xlink" contentScriptType="text/ecmascript" width="375pt" zoomAndPan="magnify" contentStyleType="text/css" viewBox="0 0 375 374.999991" height="374.999991pt" preserveAspectRatio="xMidYMid meet" version="1.2"><defs><clipPath xml:id="clip1" id="clip1"><path d="M 25 0 L 350.453125 0 L 350.453125 375 L 25 375 Z M 25 0 "/></clipPath></defs><g xml:id="surface1" id="surface1"><g clip-rule="nonzero" clip-path="url(#clip1)"><path style=" stroke:none;fill-rule:nonzero;fill:rgb(94.119263%,29.798889%,14.118958%);fill-opacity:1;" d="M 212.101562 374.660156 C 211.253906 374.617188 201.152344 372.925781 189.089844 372.195312 C 169.324219 370.992188 161.171875 370.066406 140.984375 366.738281 C 133.164062 365.449219 127.222656 361.089844 128.527344 357.597656 C 129.054688 356.191406 131.117188 355.039062 133.113281 355.039062 C 135.109375 355.039062 137.253906 354.507812 137.882812 353.859375 C 138.507812 353.210938 142.15625 351.972656 145.984375 351.109375 C 152.765625 349.578125 153.046875 349.269531 156.796875 339.316406 C 161.867188 325.867188 170.492188 291.269531 172.472656 276.429688 C 173.339844 269.941406 176.421875 253.671875 179.320312 240.265625 C 182.21875 226.863281 186.050781 204.734375 187.828125 191.09375 C 189.609375 177.449219 191.433594 165.308594 191.882812 164.109375 C 192.472656 162.53125 190.292969 161.382812 183.976562 159.929688 C 167.167969 156.078125 166.859375 150.871094 181.851562 123.921875 C 183.050781 121.757812 184.4375 119.636719 184.925781 119.203125 C 185.414062 118.773438 186.792969 116.121094 187.984375 113.308594 C 190.824219 108.429688 191.625 104.546875 194.332031 100.632812 C 195.785156 99.140625 194.023438 96.429688 186.207031 88.132812 C 180.714844 82.308594 168.363281 69.097656 158.753906 58.777344 C 147.539062 46.730469 140.007812 39.871094 137.714844 39.621094 C 131.179688 38.90625 105.308594 66.679688 86.277344 94.835938 C 67.570312 122.507812 46.5 164.246094 32.777344 200.8125 L 26.046875 218.742188 L 25.589844 203.167969 C 24.175781 154.773438 44.875 106.023438 96.726562 35.632812 C 105.519531 23.699219 112.710938 13.355469 112.710938 12.644531 C 112.710938 11.933594 115.300781 8.808594 118.464844 5.695312 L 124.214844 0.0390625 L 137.253906 14.816406 C 161.601562 42.417969 197.484375 81.464844 198.5 81.464844 C 199.054688 81.464844 200.320312 77.511719 201.308594 72.679688 C 202.5625 66.558594 205.460938 60.476562 210.867188 52.632812 C 215.132812 46.441406 221.382812 36.910156 224.746094 31.457031 C 232.132812 19.492188 238.125 16.203125 250.195312 17.476562 C 261.875 18.714844 265.828125 21.308594 281.257812 37.851562 L 287.980469 45.058594 L 283.332031 55.238281 C 280.773438 60.835938 275.964844 69.617188 272.640625 74.746094 L 266.597656 84.070312 L 271.175781 102.027344 C 274.996094 117 275.871094 123.957031 276.460938 143.863281 L 277.164062 167.738281 L 313.8125 207.539062 C 333.96875 229.425781 350.421875 247.691406 350.378906 248.121094 C 350.332031 248.554688 348.285156 250.539062 345.820312 252.53125 L 341.347656 256.152344 L 327.046875 240.738281 C 319.183594 232.261719 305.1875 217.164062 295.945312 207.1875 L 279.140625 189.050781 L 278.679688 195.597656 C 278.425781 199.199219 279.242188 206.667969 280.492188 212.191406 C 285.980469 236.449219 285.488281 256.089844 277.515625 330.984375 C 274.664062 357.761719 274.640625 357.363281 279.140625 359.464844 C 283.144531 361.335938 288.261719 365.078125 285.320312 366.941406 C 278.6875 371.140625 218.917969 374.980469 212.101562 374.652344 Z M 212.101562 374.660156 "/></g></g></svg>